<svg width="178" height="133" viewBox="0 0 178 133" fill="none" xmlns="http://www.w3.org/2000/svg">
<path d="M79.1436 74.9596C79.3571 74.6579 79.5407 74.3363 79.692 73.9991C80.1143 72.7635 81.2093 72.2885 82.2605 71.9915C82.992 71.7851 83.7678 71.5386 84.6088 71.5978C86.5173 71.7324 87.8575 72.6281 88.8127 74.2458C89.2861 74.974 89.6409 75.7727 89.8638 76.6121C89.9906 77.1867 90.1465 77.8534 89.9773 78.3775C89.3207 80.4132 88.2016 82.1236 86.0835 82.9314C85.4999 83.153 84.8932 83.3175 84.2942 83.4979C84.1945 83.5324 84.086 83.5319 83.9866 83.4966C82.4511 82.7505 80.9662 81.9006 80.0746 80.3875C79.6918 79.738 79.3371 78.987 79.4318 78.1709C79.5457 77.1805 79.1228 76.1386 79.7142 75.195L79.1436 74.9596ZM82.1984 79.7219C82.9802 79.7219 83.6672 79.8411 84.2929 79.6959C85.4502 79.4275 87.0074 77.0685 86.9192 75.8711C86.9057 75.6878 86.8461 75.4209 86.7197 75.3477C86.1392 75.0139 85.5269 74.7353 84.926 74.4369C84.5696 75.0507 83.4661 74.3626 83.3156 75.379C83.2535 75.7982 82.2959 75.5299 82.5513 76.2736C81.932 77.3724 82.3853 78.5433 82.1984 79.7219Z" fill="#171717"/>
<path d="M33.4787 93.3081C32.9822 93.1951 32.6929 92.9878 32.8714 92.3993C32.9827 92.3617 33.0895 92.3119 33.1899 92.2508C34.2018 91.5193 35.4462 91.4098 36.5858 91.0473C36.8749 90.9773 37.1754 90.9679 37.4683 91.0199C37.7611 91.0719 38.0401 91.1841 38.2873 91.3495C39.581 92.3403 41.0161 93.2017 41.6276 94.9028C42.133 96.3075 41.9295 98.1105 41.0369 99.2594C40.5182 99.9266 39.7925 100.346 39.2594 101.024C38.3847 100.882 37.4638 101.237 36.5929 100.711C36.1866 100.465 34.4179 99.5298 34.0721 99.2714C33.2655 98.6689 32.9509 97.7878 32.6492 96.894C32.5872 96.71 32.4879 96.4751 32.5502 96.3225C32.9503 95.3441 32.6657 94.1686 33.4787 93.3081Z" fill="#171717"/>
<path d="M113.774 62.1333L114.447 62.367L114.001 63.7752L113.165 63.8723L113.462 64.2713C112.933 64.923 112.323 65.424 111.385 65.3821C111.141 65.3935 110.901 65.4476 110.675 65.5419C110.063 65.7796 109.381 65.768 108.777 65.5095C108.56 65.4115 108.147 65.2998 108.077 65.3903C107.491 66.147 107.009 65.1737 106.435 65.3047C106.194 65.3597 105.965 64.7284 105.45 64.7117C105.174 64.7022 104.93 64.2961 104.636 64.1308C104.294 63.9379 104.16 63.4214 103.651 63.4966C103.413 62.7258 102.642 62.3698 102.255 61.7303C101.393 60.3072 101.392 58.2608 102.1 56.884C102.727 55.6637 103.907 55.3066 104.993 56.1272C105.519 56.5262 105.918 56.8426 106.518 56.362C106.724 56.689 106.917 56.5571 107.066 56.323C107.305 55.9499 107.67 55.9277 108.024 56.0022C109.26 56.2618 110.515 56.612 111.509 57.3568C112.383 58.0123 113.01 58.9987 113.746 59.8395C113.686 60.5841 114.633 61.2885 113.774 62.1333ZM104.075 61.1121C105.316 62.2969 107.391 62.9577 109.096 62.8932C109.468 62.8892 109.835 62.8093 110.175 62.6584C110.515 62.5076 110.82 62.2889 111.072 62.0158C111.386 61.6922 111.708 61.377 112.034 61.05C111.874 60.8787 111.738 60.6865 111.63 60.4786C111.388 59.6744 110.948 59.1707 110.039 59.1009C109.626 59.0697 109.235 58.8006 108.823 58.6771C108.554 58.5962 108.08 58.4601 108.013 58.5594C107.637 59.124 107.432 58.2384 106.939 58.6678L105.701 59.8304L104.742 59.0752C103.763 59.5638 104.258 60.3895 104.075 61.1114V61.1121Z" fill="#171717"/>
<path d="M125.16 97.6911C125.63 97.4459 126.158 97.0402 126.928 97.3541L126.636 97.7551C126.94 97.8336 127.434 97.8502 127.471 97.9883C127.726 98.9475 128.809 99.219 129.132 100.108C129.679 101.611 130.159 103.111 129.356 104.668C129.267 104.841 129.175 104.88 129.303 105.125C129.658 105.801 129.328 106.287 128.709 106.637C128.278 106.881 128.516 107.125 128.767 107.367L127.157 109.435H125.439C125.121 109.094 124.731 108.681 124.349 108.262C124.005 107.885 123.554 107.65 123.244 107.198C122.919 106.725 122.698 106.189 122.594 105.625C122.491 105.06 122.507 104.481 122.642 103.923C122.826 103.036 123.262 102.203 123.48 101.32C123.622 100.744 123.763 100.28 124.34 99.9647C124.571 99.8383 124.73 99.3744 124.723 99.0687C124.713 98.6209 125.025 98.4529 125.22 98.1696C125.284 98.077 125.188 97.8748 125.16 97.6911Z" fill="#171717"/>
<path d="M138.107 54.118L137.449 55.078C137.309 54.9474 137.184 54.7455 137.093 54.7597C135.979 54.9264 135.611 53.8557 134.862 53.4275C134.778 53.3792 134.72 53.0744 134.771 53.0307C135.55 52.3657 134.719 51.8747 134.615 51.2997C134.492 51.4105 134.382 51.5092 134.272 51.6071C134.235 51.5699 134.164 51.5316 134.166 51.4963C134.202 50.8149 133.832 50.073 134.517 49.4829C134.672 49.3486 134.643 49.0201 134.759 48.8144C135.055 48.2868 135.134 47.5908 135.677 47.2598C136.234 46.9198 136.016 46.2269 136.57 45.8272C137.512 45.1489 138.983 44.8051 140.087 45.2174C141.688 45.8159 142.708 47.0351 143.306 48.5091C143.817 49.7176 143.985 51.044 143.79 52.3418C143.66 53.0996 142.992 53.6205 142.401 54.0763C142.224 54.2128 141.781 54.0027 141.364 53.9366C141.379 54.1129 141.427 54.2848 141.503 54.4443C141.668 54.6996 141.735 54.9392 141.416 55.0428C141.091 55.1474 140.973 54.9231 140.992 54.6032C140.996 54.5509 140.85 54.489 140.687 54.368L139.86 55.0583L139.67 54.3968L138.347 55.6213C138.246 54.9829 138.18 54.5724 138.107 54.118ZM140.992 48.6366C140.919 48.5632 140.812 48.5036 140.777 48.4149C140.522 47.7663 139.836 47.8743 139.36 47.6998C139.105 47.6065 138.654 48.0303 138.299 48.2338C138.141 48.324 137.825 48.8421 137.616 49.2176C137.452 49.5093 137.274 49.9852 137.055 50.0138C136.561 50.0781 136.662 50.353 136.617 50.6473C136.562 50.8443 136.48 51.0327 136.373 51.2075C137.467 52.32 138.498 51.8539 139.625 51.3301C140.856 50.7582 141.07 49.8034 140.992 48.6366Z" fill="#171717"/>
<path d="M59.3776 70.2383L59.8904 70.6717C59.9899 70.4722 60.0637 70.1237 60.1947 70.1009C60.5272 70.0426 60.9743 70.0074 61.2199 70.1818C61.9572 70.7061 62.7332 71.2458 63.2796 71.9478C63.7887 72.6506 64.1606 73.4431 64.3758 74.2838C64.5023 74.8246 64.4241 75.3932 64.1561 75.8798C63.5858 77.0568 63.0134 78.1124 61.8226 78.8044C61.2957 79.1105 60.7045 79.1241 60.2045 79.4333C59.9907 79.5412 59.7677 79.6296 59.5381 79.6975L59.2327 79.1558C59.0553 79.4078 58.9374 79.3774 58.6674 79.1917C58.1826 78.8567 57.2401 77.9991 56.8309 77.6651C55.5162 76.5911 56.2739 75.2553 56.3306 74.0308C56.3448 73.7232 56.8358 73.4379 57.1253 73.122C58.1999 73.6997 58.7554 74.6225 59.1314 75.6419C60.1847 75.5107 60.3559 74.5271 60.9346 73.9794C61.0625 73.8584 60.9756 73.5101 61 73.0118L59.8779 74.1328C59.0855 74.0767 59.1808 73.1213 58.5134 73.0635C58.5023 72.4444 58.3961 71.806 58.5169 71.2137C58.5865 70.8776 59.027 70.6172 59.3776 70.2383Z" fill="#171717"/>
<path d="M119.092 29.6119L120.258 28.4458H122.195C122.397 27.6005 121.773 27.9428 121.369 27.8309C121.414 27.722 121.425 27.5917 121.496 27.5305C121.989 27.1065 121.258 26.9413 121.328 26.5108C121.658 25.725 122.58 25.5818 123.273 25.1538C123.469 25.0325 123.851 25.099 124.101 25.1981C125.369 25.6993 125.828 26.8369 126.34 27.9845C126.668 28.722 126.362 29.5933 126.938 30.2382C126.71 31.0805 126.622 32.0006 126.215 32.7465C125.783 33.5392 124.86 33.9708 123.992 34.0575C123.512 34.1053 123.092 34.6701 122.62 34.304C122.22 33.9936 121.655 34.1681 121.29 33.6771C121.03 33.3266 120.454 33.3029 120.297 32.6911C120.22 32.389 119.643 32.3411 119.382 31.8612C118.962 31.0871 119.274 30.3483 119.092 29.6119Z" fill="#171717"/>
<path d="M112.171 79.5732L111.622 78.5079C111.8 77.574 112.862 77.8325 113.209 77.1068C113.548 76.3948 114.584 76.6982 115.14 75.9798L114.489 75.5431C114.521 75.5034 114.563 75.3928 114.624 75.3817C115.677 75.1902 116.444 75.753 117.161 76.3921C117.757 76.9241 118.099 77.6516 118.547 78.2947C118.799 78.6569 118.36 78.9894 118.741 79.2201C118.895 79.3135 119.016 79.4542 119.085 79.6215C119.154 79.7887 119.167 79.9737 119.122 80.1489C119.052 80.5723 119.452 81.0285 119.38 81.2486C119.211 81.7664 119.197 82.3088 119.024 82.8114C118.725 83.7523 118.197 84.6046 117.489 85.2925C117.068 85.6873 116.474 85.8203 115.73 85.6902C113.936 85.3763 113.916 85.3953 113.107 84.5065C112.47 83.8213 112.047 82.9642 111.892 82.0413C111.795 81.4889 111.467 81.0015 111.856 80.4546C111.334 79.9536 112.123 79.966 112.171 79.5732ZM113.6 78.5702C113.794 79.346 113.965 79.9962 114.117 80.6519C114.151 80.7991 114.189 81.0331 114.111 81.1047C113.424 81.7418 114.063 82.2661 114.23 82.8287C115.433 82.8482 115.4 82.7728 116.017 81.8939C116.751 80.8481 116.625 79.7102 116.605 78.572C116.558 78.3301 116.423 78.1142 116.226 77.9664C115.874 77.6685 115.294 78.1289 114.973 77.6339C114.864 77.8006 114.755 77.9673 114.646 78.1342C114.038 77.7272 113.885 78.378 113.6 78.5702Z" fill="#171717"/>
<path d="M70.2683 37.1826C71.6912 37.9839 72.0181 38.6518 71.2372 39.8725C70.834 40.5025 71.3325 41.2121 70.7635 41.729C70.6793 41.8055 70.9005 42.2224 70.9852 42.4802C71.2186 43.1896 71.4487 43.2525 72.2201 43.0495C73.6928 42.6616 74.3906 41.6202 74.7451 40.2077C74.1965 40.0525 73.6434 39.9031 73.0952 39.7382C72.4267 39.5369 72.6705 38.785 72.3959 38.4406L73.4038 37.4331C74.3569 36.9011 74.9477 37.9412 75.8162 38.177C76.4535 39.2058 77.3428 40.0982 77.2506 41.4761C77.1342 43.2164 76.3845 44.6661 74.484 45.363C72.8977 45.9447 71.6426 45.7006 70.2816 44.4912C69.4519 43.7542 68.7763 42.9945 68.7461 41.6858C68.7067 39.9577 69.0372 38.439 70.2683 37.1826Z" fill="#171717"/>
<path d="M68.0873 101.251C66.7315 101.65 65.94 100.735 65.0283 100.191C64.1919 99.6907 64.0831 98.7054 63.8357 97.895C63.6071 97.1457 64.0687 96.3655 64.3398 95.641C64.6058 95.0399 64.9117 94.4571 65.2555 93.8967L64.7159 93.701C64.946 93.4589 65.1491 93.245 65.4013 92.9793L64.324 92.7844C64.6268 92.5592 64.8407 92.2681 65.0334 92.2812C65.5749 92.3178 66.1042 92.1307 66.6737 92.4415C68.1216 93.2315 68.8629 94.5551 69.3966 95.974C70.1463 97.9661 69.7455 99.7774 68.0873 101.251Z" fill="#171717"/>
<path d="M85.4432 108.666C85.2945 108.965 85.1668 109.221 85.0187 109.518C85.514 110.009 85.8883 110.609 86.112 111.269C86.3357 111.93 86.4026 112.633 86.3075 113.324C86.2687 113.674 86.2778 113.975 86.016 114.303C85.5197 114.925 85.4518 115.833 84.4889 116.162C84.072 116.304 83.6164 116.422 83.3362 116.278C82.5544 115.876 81.6556 115.566 81.171 114.763C80.8962 114.36 80.7189 113.899 80.653 113.416C80.4841 111.681 81.189 110.241 82.0716 108.86C82.3078 108.536 82.6323 108.287 83.0062 108.144C83.4666 107.935 83.7517 107.767 84.2123 108.111C84.5472 108.362 84.9906 108.469 85.4432 108.666Z" fill="#171717"/>
<path d="M141.793 72.8621C141.176 72.387 140.814 71.5294 139.852 71.5651C139.611 71.1477 139.229 70.7531 139.157 70.3082C138.981 69.2287 139.234 68.2656 140.349 67.7369C140.482 67.6744 140.571 67.5239 140.714 67.3807L140.329 67.2497L141.269 66.3096L141.053 66.0538C141.192 66.0164 141.337 65.9993 141.481 66.003C142.108 66.1112 142.831 65.684 143.363 66.3249C144.073 67.1299 144.559 68.1079 144.77 69.1602C145.039 70.6148 143.635 72.2232 142.568 72.7415C142.295 72.8736 141.957 72.3405 141.793 72.8621Z" fill="#171717"/>
<path d="M100.368 91.8884C100.353 92.1705 100.354 92.4533 100.372 92.7352C100.536 93.7956 99.6505 94.1711 99.0349 94.6382C98.4236 95.1021 97.8379 94.4201 97.2654 94.2512C96.7309 94.0935 96.29 93.5799 95.8394 93.1872C95.0806 92.527 94.7975 90.9581 95.2774 90.0173C95.3867 89.8036 95.2701 89.4394 95.7777 89.392C96.0805 89.3638 96.3669 88.8804 96.6114 88.5636C97.2494 87.737 97.8084 87.6422 98.4921 88.3641C98.9387 88.8363 99.4568 89.2222 99.7753 89.8548C100.144 90.5883 100.559 91.2533 100.368 91.8884Z" fill="#171717"/>
<path d="M83.3369 56.3072C84.0125 57.0331 84.766 57.6609 85.1206 58.6823C85.5597 59.9476 85.3201 60.6383 84.2442 61.376C83.0181 62.2166 82.1973 62.0709 81.1269 60.9795C80.9814 60.8312 80.8334 60.6855 80.7161 60.5683C80.5388 60.021 80.9455 59.389 80.3614 58.9605C80.038 57.5177 81.0138 56.3355 82.5526 56.3078C82.8131 56.3034 83.0726 56.3072 83.3369 56.3072Z" fill="#171717"/>
<path d="M97.8671 40.2424L98.4924 39.7547C98.2909 39.5856 98.0896 39.4162 97.8939 39.2511C97.9741 39.1624 98.0712 39.0538 98.2069 38.9024L97.1584 38.6734C97.6017 37.4844 98.6897 37.3979 99.5429 37.0096C99.7093 36.9338 100.069 37.1532 100.274 37.317C101.095 37.9763 101.737 38.8304 102.143 39.8015C102.199 39.9298 102.273 40.1634 102.22 40.2087C101.482 40.8384 102.456 42.0576 101.489 42.4792C101.299 42.5616 100.874 42.0753 100.364 42.0398L101.012 42.7514C100.633 43.0032 100.274 43.2643 99.8907 43.4807C99.7409 43.5248 99.5818 43.5267 99.4309 43.4862C99.3394 43.476 99.1727 43.4066 99.176 43.384C99.3024 42.5299 98.2847 43.1648 98.1707 42.6042C98.1144 42.3269 97.9063 42.0722 97.8804 41.7982C97.8327 41.2844 97.8671 40.763 97.8671 40.2424Z" fill="#171717"/>
<path d="M100.086 17.3439V16.6567H101.478C102.184 17.7165 103.15 18.7216 102.808 20.3187L101.912 20.3745V19.0855C101.661 19.1332 101.468 19.1128 101.398 19.1964C101.28 19.3342 101.268 19.5579 101.162 19.7113C100.967 19.9944 100.861 19.9303 100.6 19.5107C100.396 19.2217 100.174 18.9452 99.9371 18.6828L100.696 18.3334C100.038 18.0087 100.05 18.02 100.592 17.457C100.685 17.3594 100.632 17.1202 100.658 16.8161L100.086 17.3439Z" fill="#171717"/>
</svg>
