<svg width="107" height="105" viewBox="0 0 107 105" fill="none" xmlns="http://www.w3.org/2000/svg">
<g clip-path="url(#clip0)">
<path d="M71.0392 30.9076C71.6583 30.6518 72.009 31.24 72.4884 31.404C72.824 31.5188 73.3589 31.5737 73.4918 31.9655C73.6343 32.3853 74.0608 32.2937 74.2668 32.5745C74.4092 32.769 74.597 33.0148 74.9429 32.9565C75.0354 32.9409 75.2214 33.0803 75.2533 33.183C75.337 33.4526 75.3633 33.7367 75.7631 33.6118C75.9541 34.2214 76.5743 34.4624 76.9123 34.9523C77.301 35.5155 77.693 36.0831 78.2058 36.5471L78.2709 37.3742C78.5811 37.3206 78.7749 37.4389 78.8905 37.7399C79.3146 38.8441 79.9924 39.858 80.2528 41.0092C80.4492 41.8774 80.8083 42.7041 80.8415 43.6264C80.8767 44.5963 81.1365 45.5522 81.2025 46.5299C81.2974 47.9435 81.1891 49.3554 81.2346 50.7674C80.9607 51.255 81.1247 51.7922 81.057 52.3025C80.984 52.8536 81.0327 53.4088 80.9153 53.963C80.8014 54.5006 80.6868 55.0519 80.729 55.6167C80.746 55.8431 80.5481 55.8639 80.3189 55.8654C80.298 56.3056 80.5486 56.7165 80.3162 57.2129C80.1304 57.6098 80.2342 58.1618 80.154 58.6571C79.9172 60.1196 79.6267 61.5658 79.257 62.998C79.1216 63.5226 78.8589 64.0314 78.821 64.5596C78.7822 65.0966 78.4664 65.521 78.4116 66.0464C78.3381 66.5848 78.2006 67.1125 78.002 67.6183C77.4518 69.1495 77.059 70.7283 76.5056 72.2631C75.9209 73.8838 75.3805 75.5185 74.7214 77.1144C74.4915 77.6716 74.3365 78.2586 74.0866 78.82C73.7872 79.4932 73.4487 80.1516 73.1839 80.838C72.9289 81.4988 72.7671 82.19 72.3355 82.781C72.2425 82.9082 72.3214 83.1937 72.1248 83.3037C71.9522 83.4001 72.2518 83.7135 71.8658 83.7345C71.6832 83.7444 71.8695 84.0733 71.8267 84.2527C71.7638 84.516 71.5359 84.6754 71.4155 84.9195C70.829 86.1056 70.3463 87.3392 69.6636 88.4871C69.2787 89.1349 68.842 89.7864 68.6201 90.5541C68.4921 90.9968 67.9445 91.2839 67.8607 91.8148C67.2502 92.3237 67.1349 93.1824 66.5291 93.6968C66.3622 93.8384 66.4921 94.1812 66.105 94.2281C65.9592 94.2459 66.0378 94.7108 65.7835 94.9029C65.5684 95.0655 65.4175 95.3131 65.2382 95.523C65.059 95.7329 64.8721 95.937 64.7017 96.154C64.2582 96.7188 63.7013 97.0363 62.9921 97.2386C62.356 97.4203 61.751 97.5428 61.0995 97.4833C60.8654 97.4618 60.7521 97.319 60.65 97.1474C60.708 96.7034 61.1547 96.7753 61.4015 96.5845C61.5974 96.4332 61.9083 96.5183 62.0655 96.1942C62.1648 95.9896 62.5296 95.9817 62.4845 95.5798C62.4412 95.1941 63.064 95.4321 63.1406 95.0329L62.9636 94.8047C62.9622 94.7877 62.9433 94.7371 62.9591 94.7212C63.4367 94.2423 63.7068 93.625 64.0662 93.0676C64.1595 92.9228 64.3128 92.9954 64.4536 92.9415L64.2593 92.6105C64.3399 92.3727 64.466 92.1896 64.7613 92.1983C64.7748 92.1498 64.8112 92.0927 64.799 92.0494C64.702 91.7072 64.9473 91.5007 65.0716 91.2287C65.7261 89.7957 66.6353 88.4834 67.1029 86.9626C67.6858 86.2761 67.8031 85.3777 68.1704 84.5919C68.3993 84.102 68.6143 83.588 68.8433 83.1095C69.0797 82.6157 68.9746 81.9619 69.4995 81.6059C69.6326 80.7058 70.1644 79.9442 70.3836 79.0777C70.5416 78.4534 70.8786 77.9061 71.063 77.2852C71.2408 76.6872 71.5072 76.0827 71.701 75.4823C71.9942 74.5741 72.3857 73.6977 72.5673 72.7422C72.6725 72.2109 72.8233 71.6897 73.0181 71.1843C73.8982 68.8727 74.3965 66.4635 74.9499 64.0669C75.1153 63.3511 75.1319 62.5873 75.5149 61.9404C75.7144 61.6031 75.506 61.2396 75.717 60.8898C75.8646 60.645 75.7107 60.2369 75.8032 59.9361C75.8988 59.5952 75.9702 59.2479 76.0168 58.8969C76.1071 58.3314 76.1391 57.7191 76.6161 57.3293C76.5785 57.1044 76.4504 57.2467 76.3782 57.2041C76.2947 56.3382 76.3342 56.2496 76.9442 55.9466C76.9309 55.8157 76.9177 55.684 76.905 55.5589L76.6322 55.5574C76.4673 54.7405 76.5447 54.001 77.2136 53.4588C77.0929 53.2397 76.8609 53.4473 76.7577 53.2146C76.8247 52.3854 76.9772 51.5099 76.9382 50.6429C76.9092 49.998 76.8777 49.3452 76.8152 48.6981C76.7487 48.0112 76.7041 47.3223 76.6498 46.6342C76.5956 45.9461 76.6199 45.2403 76.4703 44.5738C76.2 43.3691 75.9449 42.1641 75.5391 40.9815C75.2006 40.0473 74.805 39.1347 74.3545 38.249C74.0624 37.6489 73.6271 37.1027 73.1802 36.5995C72.9599 36.3595 72.766 36.0965 72.6018 35.815C72.5725 35.7518 72.5219 35.7009 72.4588 35.6712C72.3957 35.6416 72.3242 35.6352 72.2568 35.653C72.178 35.7212 72.1261 35.8152 72.1103 35.9182C72.0946 36.0212 72.1159 36.1264 72.1706 36.2151C72.6458 37.0877 72.6771 38.0585 72.8062 39.0005C72.9327 39.9221 72.9835 40.8556 73.0328 41.7858C73.1108 43.2993 73.0028 44.8167 72.711 46.3039C72.5279 47.2505 72.4175 48.2078 72.1857 49.1517C71.8426 50.6146 71.3433 52.0364 70.6965 53.3926C70.6048 53.5808 70.7086 53.8262 70.5205 53.9367C70.2482 54.0969 70.4966 54.5869 70.184 54.5892C69.7541 54.5918 70.0618 54.9634 69.8486 55.0788C69.745 55.1386 69.662 55.2284 69.6103 55.3363C69.5587 55.4442 69.5409 55.5651 69.5593 55.6833C69.5747 55.8672 69.3138 55.8558 69.1373 55.8781C69.3474 56.3265 68.9814 56.6316 68.7872 56.8932C68.1716 57.7226 67.5332 58.5617 66.7676 59.2443C66.2143 59.7377 65.6717 60.2748 65.0373 60.676C64.4174 61.0681 63.7433 61.3771 63.1379 61.7891C62.7192 62.0741 62.232 62.1222 61.8007 62.3304C61.3823 62.5322 60.902 62.5778 60.5135 62.7569C59.9438 63.0198 59.3821 62.8216 58.823 62.9653C58.3053 63.0982 57.7087 62.9095 57.1819 62.7981C56.5373 62.6615 55.866 62.5158 55.2565 62.2403C54.6715 61.9759 54.0652 61.7717 53.4906 61.4615C52.7348 61.0535 51.9731 60.6844 51.3142 60.1184C51.0204 59.8659 50.5907 59.8323 50.2987 59.5247C49.9342 59.1407 49.5078 58.8387 49.2252 58.3522C48.9666 57.9068 48.4844 57.6336 48.1571 57.1837C46.941 55.5123 46.6485 55.3038 45.8552 53.3013C45.7379 53.0047 45.8518 52.6126 45.5258 52.399C45.4649 50.7354 45.0807 49.0828 45.3362 47.4089C45.6429 45.3809 46.2275 43.4047 47.0734 41.5362C47.3113 41.0113 47.3981 40.4186 47.7895 39.9553C46.8312 40.5694 46.8169 41.773 46.0358 42.7881C46.2297 41.763 46.6337 41.0871 46.9786 40.3987C47.4253 39.4752 47.9667 38.6006 48.5941 37.7889C48.8868 37.4198 49.1227 36.9614 49.416 36.5601C49.6796 36.1992 50.1704 36.1564 50.4108 35.7484C50.6142 35.3854 50.887 35.0659 51.2138 34.8082C52.277 34.0244 53.3077 33.2009 54.4176 32.4714C55.6114 31.6868 56.8944 31.134 58.1935 30.6066C59.0396 30.2631 59.9231 29.9408 60.8607 29.9504C61.2417 29.9543 61.5773 29.6182 61.9791 29.8298C62.0026 29.8422 62.0893 29.6692 62.2162 29.6846C62.4865 29.7174 62.5064 29.4406 62.6921 29.3616C62.0411 28.4082 61.3514 27.548 60.6876 26.6697C60.1885 26.0094 59.5666 25.4784 59.0594 24.8314C58.558 24.1928 57.8748 23.6618 57.1874 23.2128C56.1789 22.5541 55.1821 21.8531 54.0676 21.3758C52.9798 20.9097 51.8191 20.6618 50.681 20.348C50.3242 20.2496 49.939 20.5535 49.6061 20.2521C48.5591 20.5089 47.4825 20.0778 46.4127 20.4704C45.7711 20.7057 45.0213 20.6265 44.3248 20.7976C43.3109 21.0467 42.3211 21.3751 41.311 21.628C40.4913 21.8333 39.7256 22.1903 38.9321 22.4566C37.7647 22.8483 36.6671 23.4802 35.5893 24.0966C34.981 24.4445 34.3385 24.7296 33.7602 25.1516C32.9416 25.7488 32.0257 26.2146 31.4063 27.0549C31.1532 27.3983 31.1018 27.8482 30.7572 28.1611C30.5513 28.3483 30.3563 28.3739 30.1232 28.3912C30.2001 27.848 30.5006 27.3504 30.422 26.6334C30.2581 27.0345 29.696 26.7364 29.7142 27.3622C29.7228 27.6567 29.2283 27.8911 29.3289 28.3292L28.7008 28.3221C28.6976 28.1048 28.7158 27.8878 28.755 27.674C28.8045 27.4877 28.9986 27.3181 28.6198 27.1532C28.5864 27.6062 28.2599 27.8557 27.9736 28.1864C27.6555 27.8918 27.2773 27.7319 27.1831 27.3066C27.029 27.2839 27.0165 27.5403 26.8338 27.4606C26.8228 27.2169 26.7229 26.9613 26.8094 26.6924C26.8815 26.4678 26.9329 26.2367 26.9957 26.0007C26.7076 25.9931 26.7215 26.3518 26.4634 26.3333C26.4906 25.9536 26.6418 25.5933 26.8939 25.3081C27.5638 24.565 28.2239 23.8103 28.8405 23.0233C29.1587 22.6179 29.6115 22.3969 29.9838 22.0767C30.789 21.3845 31.6657 20.78 32.5989 20.2734C33.3812 19.8502 34.0904 19.2673 34.9779 19.0446C36.685 17.9137 38.7214 17.6837 40.5962 17.0133C41.0544 16.8496 41.5839 16.8164 42.0696 16.7616C43.9006 16.5549 45.7154 16.1767 47.5652 16.1569C50.1175 16.1298 52.6363 16.4201 55.0712 17.1963C56.0731 17.5345 57.0517 17.9384 58.0005 18.4053C58.6991 18.7355 59.327 19.2099 60.0779 19.4307C60.1381 19.4581 60.1941 19.494 60.2443 19.5372C61.2447 20.1972 64.8315 22.9709 65.4135 23.708C66.0444 24.507 66.784 25.2096 67.3843 26.0281C67.9545 26.8058 68.4851 27.6135 69.0367 28.4052C69.0749 28.46 69.1749 28.4883 69.1871 28.5422C69.425 29.5831 70.1573 30.2465 71.0392 30.9076ZM66.279 37.7588C66.149 37.3197 66.1747 36.8866 66.0626 36.4518C65.794 35.4114 65.2994 34.4763 64.8924 33.5005C64.7193 33.0862 64.3212 32.8603 63.9199 32.9888C62.577 33.4187 61.2129 33.7978 59.9985 34.5555C59.43 34.9102 58.8417 35.2329 58.2664 35.5768C57.6548 35.9424 57.1358 36.4373 56.5648 36.8589C56.0133 37.2658 55.6191 37.8703 55.0468 38.3039C54.2599 38.9006 54.0432 39.9764 53.2969 40.6361C53.3819 41.1175 52.8981 41.2986 52.753 41.6651C52.4351 42.4678 52.0875 43.2592 51.7406 44.0502C51.1427 45.4132 50.8382 46.8727 50.6857 48.3207C50.5676 49.4403 50.5128 50.6011 50.7269 51.7628C50.8775 52.5798 51.0409 53.3812 51.3569 54.1365C51.8861 55.4022 52.4979 56.6274 53.6511 57.4736C53.8186 57.5955 53.9764 57.7302 54.1229 57.8766C55.1524 58.9146 56.2202 58.7353 57.459 58.4286C58.0956 58.271 58.6247 57.8267 59.3013 57.8156C59.3479 57.6511 59.1807 57.3607 59.5317 57.365C59.7439 57.3678 59.8362 57.2286 59.9313 57.0944C60.1149 56.834 60.2653 57.2881 60.435 57.1106C60.3843 56.5796 60.7014 56.4895 61.1184 56.5189L61.1815 56.8674C61.707 56.3804 62.1087 55.8595 62.6518 55.458C63.4369 54.8769 63.8247 53.9093 64.3426 53.1005C64.8305 52.3389 65.3049 51.5034 65.5161 50.5788C65.5234 50.547 65.6989 50.5535 65.8025 50.5414C65.5959 49.7588 65.9441 49.0331 66.1084 48.3225C66.4109 47.015 66.7264 45.7266 66.6248 44.3757C66.6092 44.1687 66.7938 44.0661 66.8028 43.9324C66.8238 43.6176 67.0557 43.4089 67.1326 43.1257L66.8333 42.87C66.7067 42.6404 66.9732 42.5164 66.9338 42.284C66.9008 42.089 66.7049 41.9762 66.7946 41.6671C66.9297 41.2027 66.824 40.6431 66.7248 40.143C66.6285 39.6575 66.9705 39.1162 66.4908 38.6687C66.3261 38.5152 66.5713 38.2381 66.5723 38.0089L66.279 37.7588ZM64.2512 59.3752C64.7587 58.981 65.4712 58.8028 65.8082 58.1908C65.8806 58.0592 66.007 58.0423 66.143 58.0033C66.3022 57.9579 67.0769 56.9921 67.2127 56.8802C67.5928 56.5654 67.4975 55.9083 67.9409 55.7266C68.4681 55.5104 68.5926 55.0909 68.8507 54.672C69.4828 53.6461 69.885 52.5594 70.1341 51.2068C69.8862 51.5544 69.6942 51.7547 69.4037 51.7828C69.4635 51.9518 69.6329 52.0081 69.577 52.204C68.8625 52.7312 68.6969 53.6568 68.1874 54.3698C67.7119 55.0351 67.3483 55.7854 66.7918 56.4123C65.9274 57.3846 65.0961 58.386 64.2512 59.3752Z" fill="#171717"/>
</g>
<defs>
<clipPath id="clip0">
<rect width="85.3333" height="64" fill="white" transform="translate(64.888 104.085) rotate(-139.5)"/>
</clipPath>
</defs>
</svg>
