<svg width="138" height="103" viewBox="0 0 138 103" fill="none" xmlns="http://www.w3.org/2000/svg">
<path d="M49.5705 48.2249C48.3417 48.9651 47.3261 49.6194 46.2709 50.2013C45.1463 50.8215 44.1055 51.3699 42.6585 50.6476C41.9456 50.2918 40.8388 50.27 39.8923 50.2643C39.6996 50.2633 39.5022 50.3433 39.3148 50.321C38.8956 50.2712 38.5318 50.0396 38.4757 49.6237C38.3083 48.3847 35.873 47.6364 37.4879 46.099C39.505 44.1786 40.7966 41.7362 42.5548 39.6586C45.6448 36.0072 49.5341 33.2012 53.2901 30.2777C56.3937 27.8618 59.5496 25.5131 62.6831 23.1363C64.8934 21.4583 67.2975 20.0867 69.6967 18.7096C69.9509 18.5679 70.2189 18.4526 70.4965 18.3652C70.7711 18.2754 71.1121 18.157 71.3176 18.4083C71.5438 18.6852 71.265 18.9384 71.1152 19.1775C70.8405 19.6148 70.3456 19.9128 70.2326 20.7716C71.1188 20.2535 71.8382 19.8075 72.5817 19.406C73.2028 19.0704 73.7691 19.0028 73.6804 19.9864C73.646 20.3562 73.646 20.5198 74.0783 20.4923C75.7263 20.3874 75.6822 21.2992 75.1552 22.5798L76.2516 22.1115C76.3812 22.9159 75.5306 23.2115 75.5694 23.8625C75.8173 23.9505 76.0018 23.5755 76.2808 23.8259C76.2401 23.9479 76.1794 24.0622 76.1012 24.1643C75.5328 24.6937 74.9239 25.1819 74.3815 25.7359C73.5679 26.5669 73.6043 26.8931 74.5653 27.6913C74.8915 27.9621 74.7399 28.2044 74.607 28.4525C74.4618 28.7051 74.3021 28.9491 74.1288 29.1833C73.9914 29.3802 73.8433 29.5692 73.6898 29.7754C74.0726 30.0621 74.1995 29.6464 74.4237 29.5501C74.6796 29.4399 74.9177 29.2882 75.3555 29.0501C75.0673 30.0224 74.4596 30.5336 73.9262 31.0366C67.6017 37 61.056 42.7117 54.2101 48.0701C53.2457 48.8254 52.3791 49.8003 50.8188 49.6441C49.8388 49.5455 49.3901 49.4122 49.5705 48.2249ZM67.1579 23.0289C65.017 24.219 62.9627 25.5834 61.3556 27.5109L67.1579 23.0289Z" fill="#171717"/>
<path d="M114.887 21.4145C116.007 21.2085 116.642 20.6544 117.368 20.2853C117.763 20.0846 118.173 19.5282 118.629 20.1049C119.063 20.6542 118.547 20.9658 118.201 21.3C118.005 21.4889 117.839 21.707 117.631 21.9453C118.262 22.1366 118.635 21.8157 119.057 21.5733C119.383 21.3857 119.726 20.7881 120.151 21.3368C120.411 21.6734 120.72 22.0193 120.463 22.633C120.196 23.2721 119.896 23.8271 119.296 24.2649C119.47 24.3028 119.57 24.3589 119.618 24.3296C120 24.0948 120.374 23.395 120.802 23.8647C121.186 24.2862 120.536 24.6752 120.243 25.0357C114.296 32.3437 106.275 37.3927 99.6255 43.9382C98.0889 45.4508 95.8872 45.5903 93.957 46.2186C93.568 45.6145 94.3041 45.3756 94.1601 44.9349C91.4629 46.0878 87.2854 43.3072 88.6668 39.827C88.1737 39.5573 87.5363 40.59 87.1698 39.7394C86.7558 38.7781 86.5323 37.7309 87.3741 36.8712C88.4603 35.7616 89.5986 34.7005 90.7494 33.6573C93.0458 31.5753 95.3707 29.5247 97.674 27.4503C98.413 26.745 99.2466 26.1461 100.151 25.6707C100.598 25.4506 101.198 25.1883 101.524 25.5531C102.396 26.5316 103.04 25.8742 103.747 25.4065C107.355 23.0177 111.067 20.8109 115.016 19.023C115.318 18.8717 115.631 18.7411 115.952 18.6321C116.066 18.5853 116.192 18.5776 116.31 18.6102C116.429 18.6428 116.533 18.7138 116.607 18.8122C116.774 19.0764 116.544 19.2563 116.39 19.4359C115.901 20.0053 115.252 20.4565 114.887 21.4145ZM104.219 38.6859C105.819 37.6853 107.089 36.3196 108.377 34.9733C106.82 36.0204 105.341 37.1545 104.16 38.6265C102.764 39.3077 101.981 40.6165 101.008 41.7337C102.084 40.7214 103.401 39.9683 104.219 38.6859ZM110.534 23.9633C108.777 25.1963 106.705 25.9747 105.345 27.7377C107.093 26.4938 109.269 25.87 110.535 23.9633H110.534Z" fill="#171717"/>
<path d="M37.2517 19.667C38.0997 19.3923 38.5886 19.152 39.0983 19.0922C39.5858 19.0359 39.9501 18.2423 40.5214 18.8238C41.0718 19.3839 40.171 19.7508 40.2959 20.3021C40.9873 20.7864 41.4953 19.1631 42.2853 20.1317C42.8698 20.848 42.6075 21.4607 42.251 22.134C42.6769 22.1855 42.9601 21.722 43.4586 22.0193C42.6595 22.8459 42.7993 23.812 43.1079 24.7737C43.3665 25.5793 42.6762 25.9605 42.2916 26.2962C37.9215 30.1124 34.4884 34.7697 30.6768 39.0863C30.1188 39.7183 29.4951 40.3075 28.5683 40.5097C29.9643 37.9641 32.2735 36.1592 34.1612 33.5189C32.3303 34.9628 31.0904 36.4644 29.7888 37.9038C29.1403 38.6212 28.5053 39.3554 27.8055 40.0203C27.4224 40.3844 27.0023 40.9645 26.3435 40.3293C26.0825 40.0771 25.7612 40.2455 25.5622 40.4536C24.8536 41.1948 23.7358 41.1615 22.9975 41.8424C22.8529 41.9478 22.6842 42.0155 22.5069 42.0394C22.0381 41.165 20.8589 41.3275 20.4045 40.7957C19.7487 40.0294 19.4775 39.862 18.8451 40.6773C18.7454 40.7747 18.6239 40.8469 18.4906 40.8877C18.3573 40.9285 18.2162 40.9367 18.0791 40.9118C17.7169 40.7966 17.8932 40.4223 17.9474 40.152C18.2942 38.4288 18.2907 38.4226 16.5974 38.855C16.4416 38.2897 16.2848 37.6956 16.5703 37.16C18.2149 34.0738 19.3834 30.7369 22.3455 28.4393C25.9455 25.6468 29.3179 22.5613 32.7976 19.6127C34.1382 18.4768 35.7961 18.0708 37.4498 17.6775C37.772 17.6008 38.1974 17.4408 38.4101 17.7507C38.6698 18.1283 38.2128 18.3089 38.0094 18.556C37.8022 18.8098 37.6357 19.0998 37.2517 19.667Z" fill="#171717"/>
<path d="M74.5351 72.3403C74.7411 72.6086 74.7555 72.8858 74.5019 73.1169C71.2885 76.0455 68.0893 78.9905 64.6654 81.6766C64.5047 81.759 64.3344 81.8211 64.1583 81.8616L64.6785 80.8402C63.449 81.8106 61.9088 82.4024 61.6182 84.26C61.4149 85.5595 60.5164 85.7741 59.4586 84.9341C59.1032 84.6519 58.8016 84.6471 58.3991 84.6807C57.7756 84.7279 57.1497 84.6283 56.5716 84.3898C55.9936 84.1514 55.4795 83.7808 55.0706 83.3077C54.6616 82.8347 54.3692 82.2724 54.2169 81.666C54.0645 81.0595 54.0564 80.4258 54.1932 79.8157C54.3754 78.9874 54.4411 78.2707 53.9989 77.4704C53.5404 76.6397 53.7242 75.7571 54.424 75.065C54.8239 74.6414 55.2661 74.2597 55.7436 73.9258C61.2894 70.3412 65.8911 65.5806 71.1264 61.6111C71.8607 61.0569 72.6247 60.5434 73.4151 60.0728C73.8259 59.8271 74.3848 59.6038 74.7781 59.9935C75.2693 60.4805 74.6798 60.8468 74.4547 61.2355C74.3346 61.4441 74.1962 61.643 74.0051 61.9417C74.8279 61.8437 75.3592 61.3278 75.9898 61.048C76.3558 60.8858 76.9286 60.6455 77.0507 60.9828C77.6395 62.6102 79.7151 62.4195 80.4325 63.9071C80.8273 64.7262 80.616 65.3244 80.1425 65.8743C78.5993 67.6668 77.1243 69.5282 75.3137 71.0705C74.9057 71.4091 74.5556 71.8121 74.2774 72.2635C74.2687 72.3021 74.2738 72.3424 74.2918 72.3775C74.3819 72.3801 74.4722 72.3722 74.5625 72.3669L74.5351 72.3403Z" fill="#171717"/>
<path d="M74.5616 72.366L77.2034 69.8882L77.4575 70.1812C76.5053 70.9252 76.17 72.3915 74.541 72.3442C74.5352 72.3401 74.5616 72.366 74.5616 72.366Z" fill="#171717"/>
</svg>
